<mxfile host="app.diagrams.net" modified="2023-12-14T07:53:49.542Z" agent="Mozilla/5.0 (Windows NT 10.0; Win64; x64) AppleWebKit/537.36 (KHTML, like Gecko) Chrome/120.0.0.0 Safari/537.36" etag="vokTZ_LjtPezzsZ3Wiug" version="22.1.8" type="device">
  <diagram id="C5RBs43oDa-KdzZeNtuy" name="Page-1">
    <mxGraphModel dx="1358" dy="1727" grid="1" gridSize="10" guides="1" tooltips="1" connect="1" arrows="1" fold="1" page="1" pageScale="1" pageWidth="827" pageHeight="1169" math="0" shadow="0">
      <root>
        <mxCell id="WIyWlLk6GJQsqaUBKTNV-0" />
        <mxCell id="WIyWlLk6GJQsqaUBKTNV-1" parent="WIyWlLk6GJQsqaUBKTNV-0" />
        <mxCell id="WIyWlLk6GJQsqaUBKTNV-2" value="" style="rounded=0;html=1;jettySize=auto;orthogonalLoop=1;fontSize=11;endArrow=block;endFill=0;endSize=8;strokeWidth=1;shadow=0;labelBackgroundColor=none;edgeStyle=orthogonalEdgeStyle;fillColor=#050505;" parent="WIyWlLk6GJQsqaUBKTNV-1" source="WIyWlLk6GJQsqaUBKTNV-3" target="WIyWlLk6GJQsqaUBKTNV-6" edge="1">
          <mxGeometry relative="1" as="geometry" />
        </mxCell>
        <mxCell id="t8EYwF05XvTb9cu-9Vne-1" value="" style="edgeStyle=orthogonalEdgeStyle;rounded=0;orthogonalLoop=1;jettySize=auto;html=1;" parent="WIyWlLk6GJQsqaUBKTNV-1" source="WIyWlLk6GJQsqaUBKTNV-3" target="t8EYwF05XvTb9cu-9Vne-0" edge="1">
          <mxGeometry relative="1" as="geometry" />
        </mxCell>
        <mxCell id="WIyWlLk6GJQsqaUBKTNV-3" value="START SCREEN" style="rounded=1;whiteSpace=wrap;html=1;fontSize=12;glass=0;strokeWidth=1;shadow=0;" parent="WIyWlLk6GJQsqaUBKTNV-1" vertex="1">
          <mxGeometry x="160" y="80" width="120" height="40" as="geometry" />
        </mxCell>
        <mxCell id="WIyWlLk6GJQsqaUBKTNV-4" value="" style="rounded=0;html=1;jettySize=auto;orthogonalLoop=1;fontSize=11;endArrow=block;endFill=0;endSize=8;strokeWidth=1;shadow=0;labelBackgroundColor=none;edgeStyle=orthogonalEdgeStyle;fillColor=#050505;" parent="WIyWlLk6GJQsqaUBKTNV-1" source="WIyWlLk6GJQsqaUBKTNV-6" edge="1">
          <mxGeometry y="20" relative="1" as="geometry">
            <mxPoint as="offset" />
            <mxPoint x="220" y="290" as="targetPoint" />
          </mxGeometry>
        </mxCell>
        <mxCell id="WIyWlLk6GJQsqaUBKTNV-6" value="START" style="rhombus;whiteSpace=wrap;html=1;shadow=0;fontFamily=Helvetica;fontSize=12;align=center;strokeWidth=1;spacing=6;spacingTop=-4;" parent="WIyWlLk6GJQsqaUBKTNV-1" vertex="1">
          <mxGeometry x="170" y="170" width="100" height="80" as="geometry" />
        </mxCell>
        <mxCell id="1YCW0GaqS0c1QXD7GVxo-2" value="" style="edgeStyle=orthogonalEdgeStyle;rounded=0;orthogonalLoop=1;jettySize=auto;html=1;" edge="1" parent="WIyWlLk6GJQsqaUBKTNV-1" source="WIyWlLk6GJQsqaUBKTNV-12" target="1YCW0GaqS0c1QXD7GVxo-1">
          <mxGeometry relative="1" as="geometry" />
        </mxCell>
        <mxCell id="1YCW0GaqS0c1QXD7GVxo-23" value="" style="edgeStyle=orthogonalEdgeStyle;rounded=0;orthogonalLoop=1;jettySize=auto;html=1;" edge="1" parent="WIyWlLk6GJQsqaUBKTNV-1" source="WIyWlLk6GJQsqaUBKTNV-12" target="1YCW0GaqS0c1QXD7GVxo-22">
          <mxGeometry relative="1" as="geometry" />
        </mxCell>
        <mxCell id="WIyWlLk6GJQsqaUBKTNV-12" value="GAME VIEW" style="rounded=1;whiteSpace=wrap;html=1;fontSize=12;glass=0;strokeWidth=1;shadow=0;" parent="WIyWlLk6GJQsqaUBKTNV-1" vertex="1">
          <mxGeometry x="170" y="290" width="120" height="40" as="geometry" />
        </mxCell>
        <mxCell id="t8EYwF05XvTb9cu-9Vne-3" value="" style="edgeStyle=orthogonalEdgeStyle;rounded=0;orthogonalLoop=1;jettySize=auto;html=1;" parent="WIyWlLk6GJQsqaUBKTNV-1" source="t8EYwF05XvTb9cu-9Vne-0" target="t8EYwF05XvTb9cu-9Vne-2" edge="1">
          <mxGeometry relative="1" as="geometry" />
        </mxCell>
        <mxCell id="t8EYwF05XvTb9cu-9Vne-0" value="SETTINGS BUTTON" style="rhombus;whiteSpace=wrap;html=1;shadow=0;fontFamily=Helvetica;fontSize=12;align=center;strokeWidth=1;spacing=6;spacingTop=-4;" parent="WIyWlLk6GJQsqaUBKTNV-1" vertex="1">
          <mxGeometry x="320" y="60" width="100" height="80" as="geometry" />
        </mxCell>
        <mxCell id="t8EYwF05XvTb9cu-9Vne-5" style="edgeStyle=orthogonalEdgeStyle;rounded=0;orthogonalLoop=1;jettySize=auto;html=1;" parent="WIyWlLk6GJQsqaUBKTNV-1" source="t8EYwF05XvTb9cu-9Vne-2" edge="1">
          <mxGeometry relative="1" as="geometry">
            <mxPoint x="460" as="targetPoint" />
          </mxGeometry>
        </mxCell>
        <mxCell id="t8EYwF05XvTb9cu-9Vne-2" value="SETTINGS SCREEN" style="rounded=1;whiteSpace=wrap;html=1;fontSize=12;glass=0;strokeWidth=1;shadow=0;" parent="WIyWlLk6GJQsqaUBKTNV-1" vertex="1">
          <mxGeometry x="440" y="80" width="120" height="40" as="geometry" />
        </mxCell>
        <mxCell id="t8EYwF05XvTb9cu-9Vne-6" style="edgeStyle=orthogonalEdgeStyle;rounded=0;orthogonalLoop=1;jettySize=auto;html=1;entryX=0.5;entryY=0;entryDx=0;entryDy=0;" parent="WIyWlLk6GJQsqaUBKTNV-1" source="t8EYwF05XvTb9cu-9Vne-4" target="WIyWlLk6GJQsqaUBKTNV-3" edge="1">
          <mxGeometry relative="1" as="geometry" />
        </mxCell>
        <mxCell id="t8EYwF05XvTb9cu-9Vne-4" value="BACK" style="rhombus;whiteSpace=wrap;html=1;shadow=0;fontFamily=Helvetica;fontSize=12;align=center;strokeWidth=1;spacing=6;spacingTop=-4;" parent="WIyWlLk6GJQsqaUBKTNV-1" vertex="1">
          <mxGeometry x="410" y="-80" width="100" height="80" as="geometry" />
        </mxCell>
        <mxCell id="1YCW0GaqS0c1QXD7GVxo-7" value="" style="edgeStyle=orthogonalEdgeStyle;rounded=0;orthogonalLoop=1;jettySize=auto;html=1;" edge="1" parent="WIyWlLk6GJQsqaUBKTNV-1" source="1YCW0GaqS0c1QXD7GVxo-1" target="1YCW0GaqS0c1QXD7GVxo-6">
          <mxGeometry relative="1" as="geometry" />
        </mxCell>
        <mxCell id="1YCW0GaqS0c1QXD7GVxo-1" value="MOVE PLAYER" style="rhombus;whiteSpace=wrap;html=1;shadow=0;fontFamily=Helvetica;fontSize=12;align=center;strokeWidth=1;spacing=6;spacingTop=-4;" vertex="1" parent="WIyWlLk6GJQsqaUBKTNV-1">
          <mxGeometry x="180" y="360" width="100" height="80" as="geometry" />
        </mxCell>
        <mxCell id="1YCW0GaqS0c1QXD7GVxo-9" value="" style="edgeStyle=orthogonalEdgeStyle;rounded=0;orthogonalLoop=1;jettySize=auto;html=1;" edge="1" parent="WIyWlLk6GJQsqaUBKTNV-1" source="1YCW0GaqS0c1QXD7GVxo-6" target="1YCW0GaqS0c1QXD7GVxo-8">
          <mxGeometry relative="1" as="geometry">
            <Array as="points">
              <mxPoint x="410" y="360" />
              <mxPoint x="410" y="360" />
            </Array>
          </mxGeometry>
        </mxCell>
        <mxCell id="1YCW0GaqS0c1QXD7GVxo-6" value="MOVE PLAYER POS" style="rounded=1;whiteSpace=wrap;html=1;" vertex="1" parent="WIyWlLk6GJQsqaUBKTNV-1">
          <mxGeometry x="340" y="370" width="120" height="60" as="geometry" />
        </mxCell>
        <mxCell id="1YCW0GaqS0c1QXD7GVxo-10" value="" style="edgeStyle=orthogonalEdgeStyle;rounded=0;orthogonalLoop=1;jettySize=auto;html=1;" edge="1" parent="WIyWlLk6GJQsqaUBKTNV-1" source="1YCW0GaqS0c1QXD7GVxo-8" target="WIyWlLk6GJQsqaUBKTNV-12">
          <mxGeometry relative="1" as="geometry" />
        </mxCell>
        <mxCell id="1YCW0GaqS0c1QXD7GVxo-11" value="NO&lt;br&gt;" style="edgeLabel;html=1;align=center;verticalAlign=middle;resizable=0;points=[];" vertex="1" connectable="0" parent="1YCW0GaqS0c1QXD7GVxo-10">
          <mxGeometry x="-0.8015" y="-1" relative="1" as="geometry">
            <mxPoint as="offset" />
          </mxGeometry>
        </mxCell>
        <mxCell id="1YCW0GaqS0c1QXD7GVxo-13" value="" style="edgeStyle=orthogonalEdgeStyle;rounded=0;orthogonalLoop=1;jettySize=auto;html=1;" edge="1" parent="WIyWlLk6GJQsqaUBKTNV-1" source="1YCW0GaqS0c1QXD7GVxo-8" target="1YCW0GaqS0c1QXD7GVxo-12">
          <mxGeometry relative="1" as="geometry" />
        </mxCell>
        <mxCell id="1YCW0GaqS0c1QXD7GVxo-14" value="YES&lt;br&gt;" style="edgeLabel;html=1;align=center;verticalAlign=middle;resizable=0;points=[];" vertex="1" connectable="0" parent="1YCW0GaqS0c1QXD7GVxo-13">
          <mxGeometry x="-0.5006" y="3" relative="1" as="geometry">
            <mxPoint as="offset" />
          </mxGeometry>
        </mxCell>
        <mxCell id="1YCW0GaqS0c1QXD7GVxo-8" value="IF WIN" style="rhombus;whiteSpace=wrap;html=1;" vertex="1" parent="WIyWlLk6GJQsqaUBKTNV-1">
          <mxGeometry x="370" y="260" width="80" height="80" as="geometry" />
        </mxCell>
        <mxCell id="1YCW0GaqS0c1QXD7GVxo-21" style="edgeStyle=orthogonalEdgeStyle;rounded=0;orthogonalLoop=1;jettySize=auto;html=1;" edge="1" parent="WIyWlLk6GJQsqaUBKTNV-1" source="1YCW0GaqS0c1QXD7GVxo-12" target="1YCW0GaqS0c1QXD7GVxo-15">
          <mxGeometry relative="1" as="geometry">
            <Array as="points">
              <mxPoint x="550" y="220" />
            </Array>
          </mxGeometry>
        </mxCell>
        <mxCell id="1YCW0GaqS0c1QXD7GVxo-34" value="" style="edgeStyle=orthogonalEdgeStyle;rounded=0;orthogonalLoop=1;jettySize=auto;html=1;" edge="1" parent="WIyWlLk6GJQsqaUBKTNV-1" source="1YCW0GaqS0c1QXD7GVxo-12" target="1YCW0GaqS0c1QXD7GVxo-33">
          <mxGeometry relative="1" as="geometry" />
        </mxCell>
        <mxCell id="1YCW0GaqS0c1QXD7GVxo-12" value="VICTORY SCREEN" style="rounded=0;whiteSpace=wrap;html=1;" vertex="1" parent="WIyWlLk6GJQsqaUBKTNV-1">
          <mxGeometry x="490" y="260" width="120" height="60" as="geometry" />
        </mxCell>
        <mxCell id="1YCW0GaqS0c1QXD7GVxo-15" value="NEW LEVEL" style="rhombus;whiteSpace=wrap;html=1;" vertex="1" parent="WIyWlLk6GJQsqaUBKTNV-1">
          <mxGeometry x="320" y="180" width="80" height="80" as="geometry" />
        </mxCell>
        <mxCell id="1YCW0GaqS0c1QXD7GVxo-20" style="edgeStyle=orthogonalEdgeStyle;rounded=0;orthogonalLoop=1;jettySize=auto;html=1;entryX=0.931;entryY=0.021;entryDx=0;entryDy=0;entryPerimeter=0;" edge="1" parent="WIyWlLk6GJQsqaUBKTNV-1" source="1YCW0GaqS0c1QXD7GVxo-15" target="WIyWlLk6GJQsqaUBKTNV-12">
          <mxGeometry relative="1" as="geometry" />
        </mxCell>
        <mxCell id="1YCW0GaqS0c1QXD7GVxo-28" style="edgeStyle=orthogonalEdgeStyle;rounded=0;orthogonalLoop=1;jettySize=auto;html=1;entryX=0;entryY=0.5;entryDx=0;entryDy=0;" edge="1" parent="WIyWlLk6GJQsqaUBKTNV-1" source="1YCW0GaqS0c1QXD7GVxo-22" target="WIyWlLk6GJQsqaUBKTNV-3">
          <mxGeometry relative="1" as="geometry">
            <mxPoint x="120" y="140" as="targetPoint" />
            <Array as="points">
              <mxPoint x="100" y="100" />
            </Array>
          </mxGeometry>
        </mxCell>
        <mxCell id="1YCW0GaqS0c1QXD7GVxo-31" value="YES&lt;br&gt;" style="edgeLabel;html=1;align=center;verticalAlign=middle;resizable=0;points=[];" vertex="1" connectable="0" parent="1YCW0GaqS0c1QXD7GVxo-28">
          <mxGeometry x="-0.9148" relative="1" as="geometry">
            <mxPoint as="offset" />
          </mxGeometry>
        </mxCell>
        <mxCell id="1YCW0GaqS0c1QXD7GVxo-29" style="edgeStyle=orthogonalEdgeStyle;rounded=0;orthogonalLoop=1;jettySize=auto;html=1;" edge="1" parent="WIyWlLk6GJQsqaUBKTNV-1" source="1YCW0GaqS0c1QXD7GVxo-22" target="WIyWlLk6GJQsqaUBKTNV-12">
          <mxGeometry relative="1" as="geometry">
            <mxPoint x="180" y="350" as="targetPoint" />
            <Array as="points">
              <mxPoint x="100" y="370" />
              <mxPoint x="200" y="370" />
            </Array>
          </mxGeometry>
        </mxCell>
        <mxCell id="1YCW0GaqS0c1QXD7GVxo-30" value="NO&lt;br&gt;" style="edgeLabel;html=1;align=center;verticalAlign=middle;resizable=0;points=[];" vertex="1" connectable="0" parent="1YCW0GaqS0c1QXD7GVxo-29">
          <mxGeometry x="-0.9218" relative="1" as="geometry">
            <mxPoint as="offset" />
          </mxGeometry>
        </mxCell>
        <mxCell id="1YCW0GaqS0c1QXD7GVxo-22" value="QUIT" style="rhombus;whiteSpace=wrap;html=1;" vertex="1" parent="WIyWlLk6GJQsqaUBKTNV-1">
          <mxGeometry x="60" y="270" width="80" height="80" as="geometry" />
        </mxCell>
        <mxCell id="1YCW0GaqS0c1QXD7GVxo-37" style="edgeStyle=orthogonalEdgeStyle;rounded=0;orthogonalLoop=1;jettySize=auto;html=1;entryX=0.436;entryY=1.017;entryDx=0;entryDy=0;entryPerimeter=0;" edge="1" parent="WIyWlLk6GJQsqaUBKTNV-1" source="1YCW0GaqS0c1QXD7GVxo-33" target="1YCW0GaqS0c1QXD7GVxo-12">
          <mxGeometry relative="1" as="geometry">
            <mxPoint x="540" y="340" as="targetPoint" />
            <Array as="points">
              <mxPoint x="710" y="350" />
              <mxPoint x="542" y="350" />
            </Array>
          </mxGeometry>
        </mxCell>
        <mxCell id="1YCW0GaqS0c1QXD7GVxo-38" value="NO&lt;br&gt;" style="edgeLabel;html=1;align=center;verticalAlign=middle;resizable=0;points=[];" vertex="1" connectable="0" parent="1YCW0GaqS0c1QXD7GVxo-37">
          <mxGeometry x="-0.8292" relative="1" as="geometry">
            <mxPoint as="offset" />
          </mxGeometry>
        </mxCell>
        <mxCell id="1YCW0GaqS0c1QXD7GVxo-40" style="edgeStyle=orthogonalEdgeStyle;rounded=0;orthogonalLoop=1;jettySize=auto;html=1;entryX=0.75;entryY=1;entryDx=0;entryDy=0;" edge="1" parent="WIyWlLk6GJQsqaUBKTNV-1" target="WIyWlLk6GJQsqaUBKTNV-3">
          <mxGeometry relative="1" as="geometry">
            <mxPoint x="330.32000000000016" y="120.99999999999977" as="targetPoint" />
            <mxPoint x="710" y="250" as="sourcePoint" />
            <Array as="points">
              <mxPoint x="710" y="160" />
              <mxPoint x="250" y="160" />
            </Array>
          </mxGeometry>
        </mxCell>
        <mxCell id="1YCW0GaqS0c1QXD7GVxo-41" value="YES" style="edgeLabel;html=1;align=center;verticalAlign=middle;resizable=0;points=[];" vertex="1" connectable="0" parent="1YCW0GaqS0c1QXD7GVxo-40">
          <mxGeometry x="-0.9281" y="1" relative="1" as="geometry">
            <mxPoint as="offset" />
          </mxGeometry>
        </mxCell>
        <mxCell id="1YCW0GaqS0c1QXD7GVxo-33" value="QUIT" style="rhombus;whiteSpace=wrap;html=1;" vertex="1" parent="WIyWlLk6GJQsqaUBKTNV-1">
          <mxGeometry x="670" y="250" width="80" height="80" as="geometry" />
        </mxCell>
      </root>
    </mxGraphModel>
  </diagram>
</mxfile>
